<?xml version="1.0" encoding="UTF-8" standalone="no"?>
<!DOCTYPE svg PUBLIC "-//W3C//DTD SVG 1.1//EN" "http://www.w3.org/Graphics/SVG/1.1/DTD/svg11.dtd">
<svg width="100%" height="100%" viewBox="0 0 266 271" version="1.1" xmlns="http://www.w3.org/2000/svg" xmlns:xlink="http://www.w3.org/1999/xlink" xml:space="preserve" xmlns:serif="http://www.serif.com/" style="fill-rule:evenodd;clip-rule:evenodd;stroke-linejoin:round;stroke-miterlimit:2;">
    <g transform="matrix(1,0,0,1,-82.413259,-802.083612)">
        <path d="M141.098,1051.072C124.041,1040.012 110.367,1025.52 100.077,1007.596C88.301,987.082 82.413,963.784 82.413,937.699C82.413,911.614 88.301,888.252 100.077,867.612C111.854,846.972 128.062,830.891 148.701,819.368C160.687,812.677 187.027,805.123 187.027,805.123C187.027,805.123 207.029,802.084 217.649,802.084C247.532,802.084 273.49,809.365 295.523,823.926C317.556,838.488 332.751,858.938 341.108,885.276L279.948,885.276C273.87,874.133 265.513,865.649 254.876,859.825C244.24,854 231.831,851.087 217.649,851.087C201.947,851.087 188.018,854.633 175.862,861.724C163.706,868.815 154.21,878.945 147.372,892.114C140.534,905.283 137.115,920.478 137.115,937.699C137.115,948.645 138.443,958.722 141.098,967.931L141.098,1051.072Z" style="fill:rgb(61,105,92);"/>
        <path d="M203.254,1023.745C208.56,1024.628 214.117,1025.07 219.928,1025.07C240.188,1025.07 256.776,1019.688 269.691,1008.925C282.607,998.162 291.091,983.157 295.143,963.91L203.973,963.91L203.973,923.264L347.566,923.264L347.566,969.608C344.02,988.095 336.423,1005.19 324.773,1020.891C313.124,1036.593 298.119,1049.192 279.758,1058.689C261.397,1068.186 240.821,1072.934 218.028,1072.934C213.009,1072.934 208.084,1072.712 203.254,1072.268L203.254,1023.745Z" style="fill:rgb(211,233,164);"/>
    </g>
</svg>
